<?xml version="1.0" standalone="no"?>
<!DOCTYPE svg PUBLIC "-//W3C//DTD SVG 20010904//EN"
 "http://www.w3.org/TR/2001/REC-SVG-20010904/DTD/svg10.dtd">
<svg version="1.0" xmlns="http://www.w3.org/2000/svg"
 width="1080.000000pt" height="1080.000000pt" viewBox="0 0 1080.000000 1080.000000"
 preserveAspectRatio="xMidYMid meet">
<metadata>
Created by potrace 1.14, written by Peter Selinger 2001-2017
</metadata>
<g transform="translate(0.000000,1080.000000) scale(0.100000,-0.100000)"
fill="#000000" stroke="none">
<path d="M5052 10789 c-1758 -106 -3360 -1077 -4275 -2591 -115 -189 -288
-532 -371 -733 -301 -732 -444 -1579 -396 -2355 38 -604 175 -1207 396 -1745
83 -201 256 -544 371 -733 774 -1281 2038 -2178 3502 -2486 718 -152 1484
-152 2202 0 1464 308 2728 1205 3502 2486 115 189 288 532 371 733 221 538
358 1141 396 1745 48 776 -95 1623 -396 2355 -83 201 -256 544 -371 733 -1037
1715 -2934 2712 -4931 2591z m1138 -2432 c402 -71 860 -293 1167 -566 131
-117 309 -303 395 -415 287 -371 491 -808 587 -1259 72 -333 81 -930 20 -1300
-87 -532 -341 -1067 -708 -1490 -386 -445 -911 -759 -1417 -847 -220 -38 -300
-40 -1650 -40 -1292 0 -1322 0 -1366 20 -49 21 -68 39 -92 87 -14 28 -16 80
-16 398 l0 366 25 49 c18 36 37 56 68 72 l42 23 1345 5 c1496 7 1372 1 1600
76 194 65 358 167 528 329 245 234 426 510 526 806 93 275 139 627 117 888
-37 423 -143 748 -342 1041 -164 242 -323 404 -541 550 -167 111 -382 184
-616 209 -69 7 -510 11 -1358 11 -817 0 -1260 3 -1272 10 -9 5 -29 14 -44 20
-18 6 -36 26 -53 59 l-25 50 0 366 0 366 25 50 c20 39 35 54 68 69 41 18 89
19 1467 16 1280 -2 1435 -4 1520 -19z m-1027 -1232 c102 -18 199 -52 327 -114
284 -138 503 -364 669 -691 97 -190 124 -266 163 -445 28 -130 31 -159 35
-398 6 -281 -1 -375 -44 -567 -30 -140 -72 -249 -157 -418 -154 -301 -380
-540 -636 -671 -132 -68 -220 -100 -325 -122 -84 -17 -153 -19 -1023 -19 -916
0 -934 0 -972 20 -29 15 -47 34 -65 70 l-25 49 0 311 0 311 25 49 c18 36 37
56 68 72 l42 23 875 5 875 5 63 24 c116 43 256 202 316 358 99 259 110 512 35
768 -69 231 -210 408 -369 461 -51 17 -117 19 -920 24 l-865 5 -41 22 c-28 15
-51 38 -68 69 l-26 47 0 316 1 316 24 40 c13 22 43 52 67 67 l43 26 911 1
c765 1 925 -1 997 -14z"/>
</g>
</svg>
