<svg id="svg" version="1.1" xmlns="http://www.w3.org/2000/svg" xmlns:xlink="http://www.w3.org/1999/xlink" width="400" height="400" viewBox="0, 0, 400,400"><g id="svgg"><path id="path0" d="M123.296 99.998 C 120.423 101.750,120.403 101.865,120.403 116.600 C 120.403 128.980,120.451 129.879,121.182 131.078 C 122.976 134.020,118.854 133.774,170.582 134.026 C 221.731 134.276,217.961 134.086,226.160 136.832 C 243.872 142.765,259.308 161.087,264.553 182.400 C 274.159 221.439,252.768 261.579,218.800 268.257 C 215.776 268.851,210.362 268.943,169.835 269.086 C 119.717 269.263,122.783 269.097,121.184 271.719 C 120.451 272.921,120.403 273.814,120.401 286.281 C 120.400 300.859,120.412 300.945,122.798 302.599 L 124.282 303.627 174.041 303.489 C 223.313 303.352,223.845 303.342,228.352 302.474 C 256.817 296.991,282.818 273.680,295.423 242.339 C 304.551 219.645,304.692 184.208,295.745 161.501 C 282.348 127.504,253.889 103.424,222.802 99.785 C 213.895 98.742,125.044 98.932,123.296 99.998 M123.696 142.787 C 120.871 144.534,120.803 144.880,120.803 157.600 C 120.803 175.005,116.976 173.195,153.800 173.204 C 189.053 173.213,188.119 173.079,193.396 178.894 C 206.271 193.080,201.978 224.007,186.400 229.291 C 183.834 230.162,183.402 230.176,153.542 230.387 C 119.833 230.624,122.452 230.392,120.959 233.279 C 119.960 235.212,120.164 256.608,121.198 258.304 C 123.079 261.390,120.725 261.197,156.600 261.193 C 192.490 261.189,192.445 261.192,199.247 258.251 C 238.571 241.250,244.362 177.227,208.984 150.601 C 204.185 146.989,198.626 144.452,191.800 142.760 C 187.816 141.772,125.298 141.796,123.696 142.787 " stroke="none" fill="#fbfafa" fill-rule="evenodd"></path><path id="path1" d="M184.000 4.440 C 62.827 14.977,-19.447 129.910,9.793 247.800 C 39.691 368.341,174.184 430.813,286.200 376.192 C 383.358 328.815,423.692 211.212,376.192 113.800 C 340.991 41.612,263.513 -2.474,184.000 4.440 M222.802 99.785 C 260.154 104.158,293.797 138.733,300.575 179.712 C 308.842 229.691,288.269 275.255,248.273 295.549 C 232.701 303.450,233.894 303.322,174.041 303.489 L 124.282 303.627 122.798 302.599 C 120.412 300.945,120.400 300.859,120.401 286.281 C 120.403 273.814,120.451 272.921,121.184 271.719 C 122.783 269.097,119.717 269.263,169.835 269.086 C 210.362 268.943,215.776 268.851,218.800 268.257 C 252.768 261.579,274.159 221.439,264.553 182.400 C 259.308 161.087,243.872 142.765,226.160 136.832 C 217.961 134.086,221.731 134.276,170.582 134.026 C 118.854 133.774,122.976 134.020,121.182 131.078 C 120.451 129.879,120.403 128.980,120.403 116.600 C 120.403 101.865,120.423 101.750,123.296 99.998 C 125.044 98.932,213.895 98.742,222.802 99.785 M191.800 142.760 C 198.626 144.452,204.185 146.989,208.984 150.601 C 244.362 177.227,238.571 241.250,199.247 258.251 C 192.445 261.192,192.490 261.189,156.600 261.193 C 120.725 261.197,123.079 261.390,121.198 258.304 C 120.164 256.608,119.960 235.212,120.959 233.279 C 122.452 230.392,119.833 230.624,153.542 230.387 C 183.402 230.176,183.834 230.162,186.400 229.291 C 201.978 224.007,206.271 193.080,193.396 178.894 C 188.119 173.079,189.053 173.213,153.800 173.204 C 116.976 173.195,120.803 175.005,120.803 157.600 C 120.803 144.880,120.871 144.534,123.696 142.787 C 125.298 141.796,187.816 141.772,191.800 142.760 " stroke="none" fill="#f66c12" fill-rule="evenodd"></path></g></svg>